<svg width="101" height="100" viewBox="0 0 101 100" fill="none" xmlns="http://www.w3.org/2000/svg">
<path d="M90.7313 0H9.9383C4.44953 0 0 4.44953 0 9.9383V90.0617C0 95.5505 4.44953 100 9.9383 100H90.7313C96.22 100 100.67 95.5505 100.67 90.0617V9.9383C100.67 4.44953 96.22 0 90.7313 0Z" fill="#412416"/>
<path d="M12.8529 3.61035H87.8168C92.8976 3.61035 97.0331 7.74584 97.0331 12.8266V87.1734C97.0331 92.2542 92.8976 96.3897 87.8168 96.3897H12.8529C7.77221 96.3897 3.63672 92.2542 3.63672 87.1734V12.8266C3.63672 7.74584 7.77221 3.61035 12.8529 3.61035Z" fill="#B07A58"/>
<path d="M94.578 46.5801C76.0012 44.8077 61.1922 53.2362 44.1382 58.317C29.6443 62.6494 19.8373 64.9863 5.54036 60.1418C4.92331 59.9318 4.28002 59.7348 3.63672 59.5379V87.1603C3.63672 92.2542 7.75908 96.3766 12.8529 96.3766H87.8168C92.9107 96.3766 97.0331 92.2542 97.0331 87.1603V46.882C96.2322 46.7639 95.4314 46.6457 94.578 46.5669V46.5801Z" fill="#B07A58"/>
<path d="M97.033 23.4738V21.6884H23.7627L97.033 23.4738Z" fill="#FFF2C7"/>
<path d="M3.63672 79.5195L97.0331 81.8039V77.6028H3.63672V79.5195Z" fill="#FFF2C7"/>
<path d="M3.63672 46.0156V49.5997L97.0331 48.7464V46.8165L87.1079 46.7377L3.63672 46.0156Z" fill="#FFF2C7"/>
<path d="M97.0329 87.1734V66.1021C96.8753 65.9971 96.7309 65.8527 96.5734 65.7608C93.3306 70.986 95.0373 76.4999 93.8164 82.2502C93.1993 85.191 89.4183 94.683 86.5563 88.6176C85.2435 93.8033 63.7915 91.7422 58.4481 92.2279C53.433 92.6874 32.9394 95.7726 31.9154 89.2477C29.0271 95.2475 19.7715 93.8427 14.6908 92.0835C6.09156 89.1165 6.09156 84.7709 6.09156 76.1061C6.09156 68.5834 0.892668 41.5387 8.87481 36.0116C0.840153 33.9504 6.31475 29.0534 6.69548 21.4126C6.94492 16.345 8.28403 6.06539 14.0868 4.22739L14.4807 3.61035H12.8659C7.77202 3.61035 3.64966 7.73271 3.64966 12.8266V87.1734C3.64966 92.2673 7.77202 96.3897 12.8659 96.3897H87.8298C92.9237 96.3897 97.046 92.2673 97.046 87.1734H97.0329Z" fill="#905F41"/>
<path d="M22.9354 14.9664H79.0337C82.8409 14.9664 85.9261 18.0516 85.9261 21.8589V77.4976C85.9261 81.3049 82.8409 84.3901 79.0337 84.3901H22.9354C19.1282 84.3901 16.043 81.3049 16.043 77.4976V21.8589C16.043 18.0516 19.1282 14.9664 22.9354 14.9664Z" fill="#632618"/>
<path d="M61.0105 59.0583H58.0786V44.9027C58.0786 41.2502 54.8372 38.5075 51.4658 38.5075H41.4236C38.1064 38.5075 34.7175 41.2002 34.7175 44.9027V45.2292C34.7175 48.9255 38.1013 51.5933 41.4236 51.5933H44.9929V59.0583H41.4236C38.1064 59.0583 34.7175 61.751 34.7175 65.4535V65.7799C34.7175 69.4763 38.1013 72.144 41.4236 72.144H61.0105C64.7126 72.144 67.0637 69.0803 67.0637 65.7799V65.4535C67.0637 62.173 64.7304 59.0583 61.0105 59.0583Z" fill="#FFF2C7" stroke="#412416" stroke-width="4.08506"/>
<path d="M51.5285 40.0277C55.1437 40.0277 58.0635 37.1079 58.0635 33.4926C58.0635 29.8773 55.1437 26.9575 51.5285 26.9575C47.9132 26.9575 44.9934 29.8773 44.9934 33.4926C44.9934 37.1079 47.9132 40.0277 51.5285 40.0277Z" fill="#FFF2C7" stroke="#412416" stroke-width="4.08506"/>
</svg>
